<svg width="50" height="51" viewBox="0 0 50 51" fill="none" xmlns="http://www.w3.org/2000/svg">
<g id="local_florist_24dp_5F6368_FILL0_wght400_GRAD0_opsz24 1">
<g id="Vector">
<path fill-rule="evenodd" clip-rule="evenodd" d="M25 46.3333C25 43.7639 24.5052 41.342 23.5156 39.0677C22.526 36.7934 21.1806 34.8056 19.4792 33.1042C17.7778 31.4028 15.7899 30.0573 13.5156 29.0677C11.2413 28.0781 8.81944 27.5833 6.25 27.5833C6.25 30.1528 6.74479 32.5747 7.73438 34.849C8.72396 37.1233 10.0694 39.1111 11.7708 40.8125C13.4722 42.5139 15.4601 43.8594 17.7344 44.849C20.0087 45.8386 22.4306 46.3333 25 46.3333ZM14.6875 37.8958C16.1806 39.3889 17.9167 40.5 19.8958 41.2292C19.1667 39.25 18.0556 37.5139 16.5625 36.0208C15.0694 34.5278 13.3333 33.4167 11.3542 32.6875C12.0833 34.6667 13.1944 36.4028 14.6875 37.8958Z" fill="#94AB9F"/>
<path fill-rule="evenodd" clip-rule="evenodd" d="M26.4844 39.0677C25.4948 41.342 25 43.7639 25 46.3333C27.5694 46.3333 29.9913 45.8386 32.2656 44.849C34.5399 43.8594 36.5278 42.5139 38.2292 40.8125C39.9306 39.1111 41.276 37.1233 42.2656 34.849C43.2552 32.5747 43.75 30.1528 43.75 27.5833C41.1806 27.5833 38.7587 28.0781 36.4844 29.0677C34.2101 30.0573 32.2222 31.4028 30.5208 33.1042C28.8194 34.8056 27.474 36.7934 26.4844 39.0677ZM35.3125 37.8958C33.8194 39.3889 32.0833 40.5 30.1042 41.2292C30.8333 39.25 31.9444 37.5139 33.4375 36.0208C34.9306 34.5278 36.6667 33.4167 38.6458 32.6875C37.9167 34.6667 36.8056 36.4028 35.3125 37.8958Z" fill="#94AB9F"/>
<path fill-rule="evenodd" clip-rule="evenodd" d="M25 31.75C23.6458 31.75 22.4219 31.3767 21.3281 30.6302C20.2344 29.8837 19.4444 28.9028 18.9583 27.6875C18.7847 27.6875 18.6285 27.6962 18.4896 27.7136C18.3507 27.7309 18.1944 27.7396 18.0208 27.7396C16.2153 27.7396 14.6701 27.0972 13.3854 25.8125C12.1007 24.5278 11.4583 22.9826 11.4583 21.1771C11.4583 20.4479 11.5799 19.7448 11.8229 19.0677C12.066 18.3906 12.4306 17.757 12.9167 17.1667C12.4653 16.5764 12.1181 15.9427 11.875 15.2656C11.6319 14.5886 11.5104 13.8854 11.5104 13.1563C11.5104 11.3507 12.1441 9.80557 13.4115 8.52084C14.6788 7.23612 16.2153 6.59376 18.0208 6.59376C18.1944 6.59376 18.3507 6.60244 18.4896 6.6198C18.6285 6.63716 18.7847 6.64584 18.9583 6.64584C19.4444 5.43057 20.2344 4.44966 21.3281 3.70314C22.4219 2.95661 23.6458 2.58334 25 2.58334C26.3542 2.58334 27.5781 2.95661 28.6719 3.70314C29.7656 4.44966 30.5556 5.43057 31.0417 6.64584C31.2153 6.64584 31.3715 6.63716 31.5104 6.6198C31.6493 6.60244 31.8056 6.59376 31.9792 6.59376C33.7847 6.59376 35.3212 7.23612 36.5885 8.52084C37.8559 9.80557 38.4896 11.3507 38.4896 13.1563C38.4896 13.8854 38.3767 14.5886 38.151 15.2656C37.9253 15.9427 37.5694 16.5764 37.0833 17.1667C37.5347 17.757 37.8819 18.3906 38.125 19.0677C38.3681 19.7448 38.4896 20.4479 38.4896 21.1771C38.4896 22.9826 37.8559 24.5278 36.5885 25.8125C35.3212 27.0972 33.7847 27.7396 31.9792 27.7396C31.8056 27.7396 31.6493 27.7309 31.5104 27.7136C31.3715 27.6962 31.2153 27.6875 31.0417 27.6875C30.5556 28.9028 29.7656 29.8837 28.6719 30.6302C27.5781 31.3767 26.3542 31.75 25 31.75ZM26.4844 18.6511C26.0851 19.0504 25.5903 19.25 25 19.25C24.4097 19.25 23.9149 19.0504 23.5156 18.6511C23.1163 18.2517 22.9167 17.757 22.9167 17.1667C22.9167 16.5764 23.1163 16.0816 23.5156 15.6823C23.9149 15.283 24.4097 15.0833 25 15.0833C25.5903 15.0833 26.0851 15.283 26.4844 15.6823C26.8837 16.0816 27.0833 16.5764 27.0833 17.1667C27.0833 17.757 26.8837 18.2517 26.4844 18.6511ZM33.6719 22.8698C33.2031 23.3386 32.6389 23.5729 31.9792 23.5729C31.7014 23.5729 31.4497 23.5382 31.224 23.4688C30.9983 23.3993 30.7986 23.2951 30.625 23.1563L28.9583 21.9583C29.2361 21.7153 29.4965 21.4549 29.7396 21.1771C29.9826 20.8993 30.191 20.6042 30.3646 20.2917C30.5382 19.9792 30.6944 19.6406 30.8333 19.2761C30.9722 18.9115 31.0764 18.5382 31.1458 18.1563L32.9688 19.0417C33.3854 19.25 33.724 19.5365 33.9844 19.9011C34.2448 20.2656 34.375 20.691 34.375 21.1771C34.375 21.8368 34.1406 22.4011 33.6719 22.8698ZM32.9688 15.2917L31.1458 16.1771C31.0764 15.7951 30.9722 15.4219 30.8333 15.0573C30.6944 14.6927 30.5382 14.3542 30.3646 14.0417C30.191 13.7292 29.974 13.434 29.7135 13.1563C29.4531 12.8785 29.184 12.6181 28.9062 12.375L30.625 11.1771C30.8333 11.0382 31.0417 10.934 31.25 10.8646C31.4583 10.7951 31.7014 10.7604 31.9792 10.7604C32.6389 10.7604 33.1944 10.9948 33.6458 11.4636C34.0972 11.9323 34.3229 12.4965 34.3229 13.1563C34.3229 13.6076 34.2014 14.0243 33.9583 14.4063C33.7153 14.7882 33.3854 15.0833 32.9688 15.2917ZM23.9062 11.0208C23.559 11.0903 23.2118 11.1945 22.8646 11.3333L22.6042 9.04168C22.5347 8.41668 22.7517 7.87848 23.2552 7.42709C23.7587 6.9757 24.3403 6.75001 25 6.75001C25.6597 6.75001 26.2413 6.9757 26.7448 7.42709C27.2483 7.87848 27.4653 8.41668 27.3958 9.04168L27.1354 11.3333C26.7882 11.1945 26.441 11.0903 26.0938 11.0208C25.7465 10.9514 25.3819 10.9167 25 10.9167C24.6181 10.9167 24.2535 10.9514 23.9062 11.0208ZM26.7448 26.9063C26.2413 27.3576 25.6597 27.5833 25 27.5833C24.3403 27.5833 23.7587 27.3576 23.2552 26.9063C22.7517 26.4549 22.5347 25.9167 22.6042 25.2917L22.8646 23C23.2118 23.1389 23.559 23.2431 23.9062 23.3125C24.2535 23.382 24.6181 23.4167 25 23.4167C25.3819 23.4167 25.7465 23.382 26.0938 23.3125C26.441 23.2431 26.7882 23.1389 27.1354 23L27.3958 25.2917C27.4653 25.9167 27.2483 26.4549 26.7448 26.9063ZM19.1667 15.0573C19.0278 15.4219 18.9236 15.7951 18.8542 16.1771L17.0312 15.2917C16.6146 15.0833 16.276 14.7882 16.0156 14.4063C15.7552 14.0243 15.625 13.6076 15.625 13.1563C15.625 12.4965 15.8594 11.9323 16.3281 11.4636C16.7969 10.9948 17.3611 10.7604 18.0208 10.7604C18.2986 10.7604 18.5503 10.7951 18.776 10.8646C19.0017 10.934 19.2014 11.0382 19.375 11.1771L21.0417 12.375C20.7639 12.6181 20.5035 12.8785 20.2604 13.1563C20.0174 13.434 19.809 13.7292 19.6354 14.0417C19.4618 14.3542 19.3056 14.6927 19.1667 15.0573ZM18.75 23.4427C18.5417 23.4948 18.2986 23.5208 18.0208 23.5208C17.3611 23.5208 16.8142 23.2951 16.3802 22.8438C15.9462 22.3924 15.7118 21.8368 15.6771 21.1771C15.6771 20.7257 15.7986 20.309 16.0417 19.9271C16.2847 19.5451 16.6146 19.25 17.0312 19.0417L18.8542 18.1563C18.9236 18.5382 19.0278 18.9115 19.1667 19.2761C19.3056 19.6406 19.4618 19.9792 19.6354 20.2917C19.809 20.6042 20.026 20.8993 20.2865 21.1771C20.5469 21.4549 20.816 21.7153 21.0938 21.9583L19.375 23.1042C19.1667 23.2778 18.9583 23.3906 18.75 23.4427Z" fill="#B085D1"/>
</g>
</g>
</svg>
