<svg id="visual" viewBox="0 0 900 600" width="900" height="600" xmlns="http://www.w3.org/2000/svg" xmlns:xlink="http://www.w3.org/1999/xlink" version="1.1"><g stroke-width="1" stroke-linejoin="bevel"><path d="M467 266L388 209L419 277Z" fill="#17459f" stroke="#17459f"></path><path d="M467 266L492 200L388 209Z" fill="#002d5f" stroke="#002d5f"></path><path d="M492 200L463 130L388 209Z" fill="#002d5f" stroke="#002d5f"></path><path d="M270 104L267 226L388 209Z" fill="#2d4cb5" stroke="#2d4cb5"></path><path d="M388 209L267 226L419 277Z" fill="#5958de" stroke="#5958de"></path><path d="M463 130L384 68L388 209Z" fill="#002d5f" stroke="#002d5f"></path><path d="M372 405L508 396L419 277Z" fill="#001122" stroke="#001122"></path><path d="M419 277L508 396L467 266Z" fill="#001122" stroke="#001122"></path><path d="M467 266L619 224L492 200Z" fill="#001b35" stroke="#001b35"></path><path d="M631 287L619 224L467 266Z" fill="#001122" stroke="#001122"></path><path d="M492 200L583 66L463 130Z" fill="#002d5f" stroke="#002d5f"></path><path d="M521 0L383 0L384 68Z" fill="#715df2" stroke="#715df2"></path><path d="M262 328L372 405L419 277Z" fill="#003d8a" stroke="#003d8a"></path><path d="M267 226L262 328L419 277Z" fill="#002d5f" stroke="#002d5f"></path><path d="M594 370L631 287L467 266Z" fill="#003d8a" stroke="#003d8a"></path><path d="M384 68L270 104L388 209Z" fill="#001b35" stroke="#001b35"></path><path d="M267 226L206 317L262 328Z" fill="#4252ca" stroke="#4252ca"></path><path d="M508 396L594 370L467 266Z" fill="#00244a" stroke="#00244a"></path><path d="M619 224L583 66L492 200Z" fill="#5958de" stroke="#5958de"></path><path d="M521 0L384 68L463 130Z" fill="#2d4cb5" stroke="#2d4cb5"></path><path d="M384 68L305 0L270 104Z" fill="#001b35" stroke="#001b35"></path><path d="M191 163L206 317L267 226Z" fill="#17459f" stroke="#17459f"></path><path d="M262 328L279 436L372 405Z" fill="#715df2" stroke="#715df2"></path><path d="M583 66L521 0L463 130Z" fill="#001122" stroke="#001122"></path><path d="M188 70L191 163L270 104Z" fill="#003d8a" stroke="#003d8a"></path><path d="M270 104L191 163L267 226Z" fill="#715df2" stroke="#715df2"></path><path d="M227 414L279 436L262 328Z" fill="#715df2" stroke="#715df2"></path><path d="M426 535L481 529L508 396Z" fill="#003574" stroke="#003574"></path><path d="M383 0L305 0L384 68Z" fill="#001b35" stroke="#001b35"></path><path d="M583 66L563 0L521 0Z" fill="#5958de" stroke="#5958de"></path><path d="M206 317L227 414L262 328Z" fill="#2d4cb5" stroke="#2d4cb5"></path><path d="M631 287L712 209L619 224Z" fill="#17459f" stroke="#17459f"></path><path d="M619 224L662 66L583 66Z" fill="#003574" stroke="#003574"></path><path d="M583 66L662 66L563 0Z" fill="#001122" stroke="#001122"></path><path d="M721 273L712 209L631 287Z" fill="#002d5f" stroke="#002d5f"></path><path d="M712 209L662 66L619 224Z" fill="#17459f" stroke="#17459f"></path><path d="M218 509L293 477L279 436Z" fill="#17459f" stroke="#17459f"></path><path d="M279 436L293 477L372 405Z" fill="#4252ca" stroke="#4252ca"></path><path d="M508 396L625 536L594 370Z" fill="#00244a" stroke="#00244a"></path><path d="M711 360L721 273L631 287Z" fill="#17459f" stroke="#17459f"></path><path d="M305 0L188 70L270 104Z" fill="#001b35" stroke="#001b35"></path><path d="M128 87L139 175L191 163Z" fill="#17459f" stroke="#17459f"></path><path d="M191 163L139 175L206 317Z" fill="#003574" stroke="#003574"></path><path d="M206 317L126 375L227 414Z" fill="#17459f" stroke="#17459f"></path><path d="M426 535L508 396L372 405Z" fill="#715df2" stroke="#715df2"></path><path d="M594 370L711 360L631 287Z" fill="#002d5f" stroke="#002d5f"></path><path d="M293 477L426 535L372 405Z" fill="#001122" stroke="#001122"></path><path d="M625 536L711 360L594 370Z" fill="#17459f" stroke="#17459f"></path><path d="M139 175L127 322L206 317Z" fill="#003d8a" stroke="#003d8a"></path><path d="M227 414L218 509L279 436Z" fill="#002d5f" stroke="#002d5f"></path><path d="M305 0L190 0L188 70Z" fill="#003d8a" stroke="#003d8a"></path><path d="M188 70L128 87L191 163Z" fill="#003574" stroke="#003574"></path><path d="M190 0L128 87L188 70Z" fill="#715df2" stroke="#715df2"></path><path d="M139 175L0 284L127 322Z" fill="#17459f" stroke="#17459f"></path><path d="M797 0L683 0L662 66Z" fill="#17459f" stroke="#17459f"></path><path d="M662 66L683 0L563 0Z" fill="#4252ca" stroke="#4252ca"></path><path d="M807 107L662 66L712 209Z" fill="#001122" stroke="#001122"></path><path d="M103 492L126 375L0 428Z" fill="#4252ca" stroke="#4252ca"></path><path d="M127 322L126 375L206 317Z" fill="#001122" stroke="#001122"></path><path d="M103 492L218 509L227 414Z" fill="#001b35" stroke="#001b35"></path><path d="M293 477L386 600L426 535Z" fill="#001b35" stroke="#001b35"></path><path d="M807 380L775 332L711 360Z" fill="#4252ca" stroke="#4252ca"></path><path d="M711 360L775 332L721 273Z" fill="#17459f" stroke="#17459f"></path><path d="M833 190L807 107L712 209Z" fill="#003d8a" stroke="#003d8a"></path><path d="M481 529L625 536L508 396Z" fill="#001b35" stroke="#001b35"></path><path d="M481 600L625 536L481 529Z" fill="#001122" stroke="#001122"></path><path d="M260 600L386 600L293 477Z" fill="#00244a" stroke="#00244a"></path><path d="M426 535L481 600L481 529Z" fill="#4252ca" stroke="#4252ca"></path><path d="M386 600L481 600L426 535Z" fill="#001b35" stroke="#001b35"></path><path d="M833 190L712 209L721 273Z" fill="#4252ca" stroke="#4252ca"></path><path d="M775 332L833 190L721 273Z" fill="#003574" stroke="#003574"></path><path d="M771 465L807 380L711 360Z" fill="#00244a" stroke="#00244a"></path><path d="M900 323L900 206L833 190Z" fill="#00244a" stroke="#00244a"></path><path d="M662 600L707 532L625 536Z" fill="#001122" stroke="#001122"></path><path d="M625 536L707 532L711 360Z" fill="#001b35" stroke="#001b35"></path><path d="M218 509L260 600L293 477Z" fill="#001122" stroke="#001122"></path><path d="M235 600L260 600L218 509Z" fill="#002d5f" stroke="#002d5f"></path><path d="M707 532L771 465L711 360Z" fill="#4252ca" stroke="#4252ca"></path><path d="M481 600L624 600L625 536Z" fill="#5958de" stroke="#5958de"></path><path d="M126 600L235 600L218 509Z" fill="#5958de" stroke="#5958de"></path><path d="M0 284L126 375L127 322Z" fill="#001b35" stroke="#001b35"></path><path d="M126 375L103 492L227 414Z" fill="#001b35" stroke="#001b35"></path><path d="M190 0L73 0L128 87Z" fill="#003574" stroke="#003574"></path><path d="M0 173L0 284L139 175Z" fill="#002d5f" stroke="#002d5f"></path><path d="M900 0L797 0L807 107Z" fill="#00244a" stroke="#00244a"></path><path d="M807 107L797 0L662 66Z" fill="#4252ca" stroke="#4252ca"></path><path d="M624 600L662 600L625 536Z" fill="#001b35" stroke="#001b35"></path><path d="M900 468L900 420L771 465Z" fill="#001122" stroke="#001122"></path><path d="M0 173L139 175L0 131Z" fill="#2d4cb5" stroke="#2d4cb5"></path><path d="M0 131L139 175L128 87Z" fill="#5958de" stroke="#5958de"></path><path d="M73 0L0 131L128 87Z" fill="#715df2" stroke="#715df2"></path><path d="M900 323L833 190L775 332Z" fill="#001b35" stroke="#001b35"></path><path d="M833 190L900 132L807 107Z" fill="#001122" stroke="#001122"></path><path d="M900 323L775 332L807 380Z" fill="#003574" stroke="#003574"></path><path d="M900 420L900 323L807 380Z" fill="#003d8a" stroke="#003d8a"></path><path d="M900 420L807 380L771 465Z" fill="#5958de" stroke="#5958de"></path><path d="M0 284L0 428L126 375Z" fill="#001122" stroke="#001122"></path><path d="M103 492L126 600L218 509Z" fill="#2d4cb5" stroke="#2d4cb5"></path><path d="M900 206L900 132L833 190Z" fill="#003d8a" stroke="#003d8a"></path><path d="M0 600L126 600L103 492Z" fill="#17459f" stroke="#17459f"></path><path d="M73 0L0 0L0 131Z" fill="#002d5f" stroke="#002d5f"></path><path d="M0 428L0 467L103 492Z" fill="#5958de" stroke="#5958de"></path><path d="M900 468L771 465L816 600Z" fill="#003d8a" stroke="#003d8a"></path><path d="M900 132L900 0L807 107Z" fill="#001122" stroke="#001122"></path><path d="M816 600L771 465L707 532Z" fill="#715df2" stroke="#715df2"></path><path d="M662 600L816 600L707 532Z" fill="#003d8a" stroke="#003d8a"></path><path d="M0 467L0 600L103 492Z" fill="#001b35" stroke="#001b35"></path><path d="M816 600L900 600L900 468Z" fill="#003d8a" stroke="#003d8a"></path></g></svg>