<svg id="visual" viewBox="0 0 900 600" width="900" height="600" xmlns="http://www.w3.org/2000/svg" xmlns:xlink="http://www.w3.org/1999/xlink" version="1.1"><g stroke-width="1" stroke-linejoin="bevel"><path d="M480 322L408 436L504 383Z" fill="#f1f6ff" stroke="#f1f6ff"></path><path d="M408 436L431 464L504 383Z" fill="#a4ccfb" stroke="#a4ccfb"></path><path d="M480 322L419 262L408 436Z" fill="#92c4fa" stroke="#92c4fa"></path><path d="M431 464L487 484L504 383Z" fill="#f1f6ff" stroke="#f1f6ff"></path><path d="M419 262L312 404L408 436Z" fill="#f1f6ff" stroke="#f1f6ff"></path><path d="M408 436L283 521L431 464Z" fill="#ffffff" stroke="#ffffff"></path><path d="M589 223L472 237L480 322Z" fill="#e2eefe" stroke="#e2eefe"></path><path d="M480 322L472 237L419 262Z" fill="#e2eefe" stroke="#e2eefe"></path><path d="M487 484L612 398L504 383Z" fill="#b4d4fc" stroke="#b4d4fc"></path><path d="M504 383L624 335L480 322Z" fill="#d3e5fd" stroke="#d3e5fd"></path><path d="M301 180L268 301L419 262Z" fill="#d3e5fd" stroke="#d3e5fd"></path><path d="M419 262L268 301L312 404Z" fill="#e2eefe" stroke="#e2eefe"></path><path d="M612 398L624 335L504 383Z" fill="#7fbcf9" stroke="#7fbcf9"></path><path d="M528 600L561 532L487 484Z" fill="#e2eefe" stroke="#e2eefe"></path><path d="M487 484L561 532L612 398Z" fill="#f1f6ff" stroke="#f1f6ff"></path><path d="M379 600L487 484L431 464Z" fill="#f1f6ff" stroke="#f1f6ff"></path><path d="M220 462L283 521L312 404Z" fill="#4facf7" stroke="#4facf7"></path><path d="M312 404L283 521L408 436Z" fill="#e2eefe" stroke="#e2eefe"></path><path d="M624 335L589 223L480 322Z" fill="#4facf7" stroke="#4facf7"></path><path d="M467 121L382 162L472 237Z" fill="#d3e5fd" stroke="#d3e5fd"></path><path d="M472 237L382 162L419 262Z" fill="#a4ccfb" stroke="#a4ccfb"></path><path d="M283 521L379 600L431 464Z" fill="#e2eefe" stroke="#e2eefe"></path><path d="M201 388L220 462L312 404Z" fill="#92c4fa" stroke="#92c4fa"></path><path d="M268 301L201 388L312 404Z" fill="#e2eefe" stroke="#e2eefe"></path><path d="M193 226L215 292L268 301Z" fill="#b4d4fc" stroke="#b4d4fc"></path><path d="M268 301L215 292L201 388Z" fill="#69b4f8" stroke="#69b4f8"></path><path d="M382 162L301 180L419 262Z" fill="#92c4fa" stroke="#92c4fa"></path><path d="M612 398L672 332L624 335Z" fill="#b4d4fc" stroke="#b4d4fc"></path><path d="M624 335L672 332L589 223Z" fill="#a4ccfb" stroke="#a4ccfb"></path><path d="M683 417L672 332L612 398Z" fill="#92c4fa" stroke="#92c4fa"></path><path d="M379 600L528 600L487 484Z" fill="#ffffff" stroke="#ffffff"></path><path d="M680 495L683 417L612 398Z" fill="#f1f6ff" stroke="#f1f6ff"></path><path d="M680 495L612 398L561 532Z" fill="#92c4fa" stroke="#92c4fa"></path><path d="M589 223L467 121L472 237Z" fill="#a4ccfb" stroke="#a4ccfb"></path><path d="M382 162L329 122L301 180Z" fill="#d3e5fd" stroke="#d3e5fd"></path><path d="M528 600L579 600L561 532Z" fill="#7fbcf9" stroke="#7fbcf9"></path><path d="M579 600L680 495L561 532Z" fill="#b4d4fc" stroke="#b4d4fc"></path><path d="M364 79L329 122L382 162Z" fill="#92c4fa" stroke="#92c4fa"></path><path d="M301 180L193 226L268 301Z" fill="#ffffff" stroke="#ffffff"></path><path d="M283 521L263 600L379 600Z" fill="#f1f6ff" stroke="#f1f6ff"></path><path d="M161 600L263 600L283 521Z" fill="#a4ccfb" stroke="#a4ccfb"></path><path d="M232 120L193 226L301 180Z" fill="#d3e5fd" stroke="#d3e5fd"></path><path d="M123 270L138 414L201 388Z" fill="#ffffff" stroke="#ffffff"></path><path d="M201 388L138 414L220 462Z" fill="#7fbcf9" stroke="#7fbcf9"></path><path d="M220 462L161 600L283 521Z" fill="#69b4f8" stroke="#69b4f8"></path><path d="M123 270L201 388L215 292Z" fill="#e2eefe" stroke="#e2eefe"></path><path d="M467 121L364 79L382 162Z" fill="#a4ccfb" stroke="#a4ccfb"></path><path d="M329 122L232 120L301 180Z" fill="#e2eefe" stroke="#e2eefe"></path><path d="M670 161L591 101L589 223Z" fill="#ffffff" stroke="#ffffff"></path><path d="M589 223L591 101L467 121Z" fill="#69b4f8" stroke="#69b4f8"></path><path d="M467 121L393 0L364 79Z" fill="#92c4fa" stroke="#92c4fa"></path><path d="M672 332L670 161L589 223Z" fill="#7fbcf9" stroke="#7fbcf9"></path><path d="M802 221L670 161L672 332Z" fill="#69b4f8" stroke="#69b4f8"></path><path d="M293 0L232 120L329 122Z" fill="#c4dcfd" stroke="#c4dcfd"></path><path d="M73 235L123 270L193 226Z" fill="#d3e5fd" stroke="#d3e5fd"></path><path d="M193 226L123 270L215 292Z" fill="#e2eefe" stroke="#e2eefe"></path><path d="M87 600L123 526L0 501Z" fill="#d3e5fd" stroke="#d3e5fd"></path><path d="M138 414L123 526L220 462Z" fill="#f1f6ff" stroke="#f1f6ff"></path><path d="M123 526L161 600L220 462Z" fill="#92c4fa" stroke="#92c4fa"></path><path d="M680 495L789 427L683 417Z" fill="#7fbcf9" stroke="#7fbcf9"></path><path d="M683 417L789 427L672 332Z" fill="#69b4f8" stroke="#69b4f8"></path><path d="M797 464L789 427L680 495Z" fill="#69b4f8" stroke="#69b4f8"></path><path d="M732 600L797 464L680 495Z" fill="#a4ccfb" stroke="#a4ccfb"></path><path d="M579 600L732 600L680 495Z" fill="#92c4fa" stroke="#92c4fa"></path><path d="M614 0L480 0L591 101Z" fill="#ffffff" stroke="#ffffff"></path><path d="M591 101L480 0L467 121Z" fill="#ffffff" stroke="#ffffff"></path><path d="M364 79L293 0L329 122Z" fill="#7fbcf9" stroke="#7fbcf9"></path><path d="M480 0L393 0L467 121Z" fill="#c4dcfd" stroke="#c4dcfd"></path><path d="M900 421L813 304L789 427Z" fill="#c4dcfd" stroke="#c4dcfd"></path><path d="M789 427L813 304L672 332Z" fill="#e2eefe" stroke="#e2eefe"></path><path d="M75 101L73 235L193 226Z" fill="#69b4f8" stroke="#69b4f8"></path><path d="M123 270L0 389L138 414Z" fill="#b4d4fc" stroke="#b4d4fc"></path><path d="M75 101L193 226L232 120Z" fill="#ffffff" stroke="#ffffff"></path><path d="M802 221L736 119L670 161Z" fill="#e2eefe" stroke="#e2eefe"></path><path d="M670 161L736 119L591 101Z" fill="#92c4fa" stroke="#92c4fa"></path><path d="M813 304L802 221L672 332Z" fill="#d3e5fd" stroke="#d3e5fd"></path><path d="M393 0L293 0L364 79Z" fill="#69b4f8" stroke="#69b4f8"></path><path d="M675 0L614 0L591 101Z" fill="#e2eefe" stroke="#e2eefe"></path><path d="M0 501L123 526L138 414Z" fill="#f1f6ff" stroke="#f1f6ff"></path><path d="M123 526L87 600L161 600Z" fill="#69b4f8" stroke="#69b4f8"></path><path d="M0 295L0 389L123 270Z" fill="#a4ccfb" stroke="#a4ccfb"></path><path d="M293 0L205 0L232 120Z" fill="#b4d4fc" stroke="#b4d4fc"></path><path d="M0 175L0 295L73 235Z" fill="#7fbcf9" stroke="#7fbcf9"></path><path d="M73 235L0 295L123 270Z" fill="#ffffff" stroke="#ffffff"></path><path d="M786 0L675 0L736 119Z" fill="#d3e5fd" stroke="#d3e5fd"></path><path d="M736 119L675 0L591 101Z" fill="#a4ccfb" stroke="#a4ccfb"></path><path d="M732 600L827 600L797 464Z" fill="#7fbcf9" stroke="#7fbcf9"></path><path d="M797 464L900 421L789 427Z" fill="#4facf7" stroke="#4facf7"></path><path d="M205 0L75 101L232 120Z" fill="#f1f6ff" stroke="#f1f6ff"></path><path d="M0 389L0 501L138 414Z" fill="#a4ccfb" stroke="#a4ccfb"></path><path d="M900 527L900 421L797 464Z" fill="#7fbcf9" stroke="#7fbcf9"></path><path d="M813 304L900 311L802 221Z" fill="#69b4f8" stroke="#69b4f8"></path><path d="M900 193L822 112L802 221Z" fill="#4facf7" stroke="#4facf7"></path><path d="M802 221L822 112L736 119Z" fill="#7fbcf9" stroke="#7fbcf9"></path><path d="M900 421L900 311L813 304Z" fill="#e2eefe" stroke="#e2eefe"></path><path d="M75 101L0 175L73 235Z" fill="#4facf7" stroke="#4facf7"></path><path d="M827 600L900 527L797 464Z" fill="#69b4f8" stroke="#69b4f8"></path><path d="M0 501L0 600L87 600Z" fill="#d3e5fd" stroke="#d3e5fd"></path><path d="M900 311L900 193L802 221Z" fill="#e2eefe" stroke="#e2eefe"></path><path d="M900 0L786 0L822 112Z" fill="#a4ccfb" stroke="#a4ccfb"></path><path d="M822 112L786 0L736 119Z" fill="#4facf7" stroke="#4facf7"></path><path d="M827 600L900 600L900 527Z" fill="#69b4f8" stroke="#69b4f8"></path><path d="M205 0L66 0L75 101Z" fill="#69b4f8" stroke="#69b4f8"></path><path d="M75 101L0 63L0 175Z" fill="#a4ccfb" stroke="#a4ccfb"></path><path d="M66 0L0 63L75 101Z" fill="#a4ccfb" stroke="#a4ccfb"></path><path d="M900 193L900 104L822 112Z" fill="#a4ccfb" stroke="#a4ccfb"></path><path d="M66 0L0 0L0 63Z" fill="#c4dcfd" stroke="#c4dcfd"></path><path d="M900 104L900 0L822 112Z" fill="#c4dcfd" stroke="#c4dcfd"></path></g></svg>