<svg id="visual" viewBox="0 0 900 600" width="900" height="600" xmlns="http://www.w3.org/2000/svg" xmlns:xlink="http://www.w3.org/1999/xlink" version="1.1"><g stroke-width="1" stroke-linejoin="bevel"><path d="M468 314L535 371L560 272Z" fill="#0c2435" stroke="#0c2435"></path><path d="M535 371L594 404L560 272Z" fill="#246688" stroke="#246688"></path><path d="M711 322L598 209L560 272Z" fill="#0c2435" stroke="#0c2435"></path><path d="M462 168L385 276L468 314Z" fill="#112e42" stroke="#112e42"></path><path d="M462 168L468 314L560 272Z" fill="#297ea6" stroke="#297ea6"></path><path d="M468 314L398 395L535 371Z" fill="#112e42" stroke="#112e42"></path><path d="M385 276L398 395L468 314Z" fill="#00101c" stroke="#00101c"></path><path d="M535 371L514 502L594 404Z" fill="#0c2435" stroke="#0c2435"></path><path d="M598 209L462 168L560 272Z" fill="#112e42" stroke="#112e42"></path><path d="M481 137L438 160L462 168Z" fill="#277297" stroke="#277297"></path><path d="M462 168L438 160L385 276Z" fill="#15384f" stroke="#15384f"></path><path d="M598 209L481 137L462 168Z" fill="#297ea6" stroke="#297ea6"></path><path d="M398 395L514 502L535 371Z" fill="#19435d" stroke="#19435d"></path><path d="M721 402L711 322L594 404Z" fill="#1d4e6b" stroke="#1d4e6b"></path><path d="M594 404L711 322L560 272Z" fill="#00101c" stroke="#00101c"></path><path d="M315 195L338 294L385 276Z" fill="#19435d" stroke="#19435d"></path><path d="M385 276L338 294L398 395Z" fill="#15384f" stroke="#15384f"></path><path d="M729 465L721 402L594 404Z" fill="#205a7a" stroke="#205a7a"></path><path d="M514 502L605 520L594 404Z" fill="#15384f" stroke="#15384f"></path><path d="M711 322L736 232L598 209Z" fill="#19435d" stroke="#19435d"></path><path d="M598 209L579 82L481 137Z" fill="#205a7a" stroke="#205a7a"></path><path d="M791 319L736 232L711 322Z" fill="#205a7a" stroke="#205a7a"></path><path d="M338 294L300 364L398 395Z" fill="#1d4e6b" stroke="#1d4e6b"></path><path d="M398 395L376 502L514 502Z" fill="#112e42" stroke="#112e42"></path><path d="M321 505L376 502L398 395Z" fill="#277297" stroke="#277297"></path><path d="M514 502L575 600L605 520Z" fill="#19435d" stroke="#19435d"></path><path d="M677 66L579 82L598 209Z" fill="#1d4e6b" stroke="#1d4e6b"></path><path d="M308 139L315 195L438 160Z" fill="#19435d" stroke="#19435d"></path><path d="M438 160L315 195L385 276Z" fill="#15384f" stroke="#15384f"></path><path d="M338 294L238 371L300 364Z" fill="#246688" stroke="#246688"></path><path d="M400 76L438 160L481 137Z" fill="#205a7a" stroke="#205a7a"></path><path d="M729 465L769 374L721 402Z" fill="#246688" stroke="#246688"></path><path d="M721 402L769 374L711 322Z" fill="#112e42" stroke="#112e42"></path><path d="M605 520L729 465L594 404Z" fill="#15384f" stroke="#15384f"></path><path d="M769 374L791 319L711 322Z" fill="#246688" stroke="#246688"></path><path d="M486 0L400 76L481 137Z" fill="#112e42" stroke="#112e42"></path><path d="M300 364L321 505L398 395Z" fill="#297ea6" stroke="#297ea6"></path><path d="M376 502L488 600L514 502Z" fill="#205a7a" stroke="#205a7a"></path><path d="M400 76L308 139L438 160Z" fill="#112e42" stroke="#112e42"></path><path d="M182 335L238 371L338 294Z" fill="#112e42" stroke="#112e42"></path><path d="M387 600L488 600L376 502Z" fill="#112e42" stroke="#112e42"></path><path d="M605 520L702 600L729 465Z" fill="#112e42" stroke="#112e42"></path><path d="M488 600L575 600L514 502Z" fill="#0c2435" stroke="#0c2435"></path><path d="M182 335L338 294L315 195Z" fill="#277297" stroke="#277297"></path><path d="M300 364L238 371L321 505Z" fill="#297ea6" stroke="#297ea6"></path><path d="M774 93L677 66L736 232Z" fill="#15384f" stroke="#15384f"></path><path d="M736 232L677 66L598 209Z" fill="#081a28" stroke="#081a28"></path><path d="M579 82L486 0L481 137Z" fill="#112e42" stroke="#112e42"></path><path d="M332 600L387 600L376 502Z" fill="#081a28" stroke="#081a28"></path><path d="M638 0L486 0L579 82Z" fill="#246688" stroke="#246688"></path><path d="M400 76L271 0L308 139Z" fill="#297ea6" stroke="#297ea6"></path><path d="M791 319L819 171L736 232Z" fill="#246688" stroke="#246688"></path><path d="M819 171L774 93L736 232Z" fill="#277297" stroke="#277297"></path><path d="M677 66L638 0L579 82Z" fill="#205a7a" stroke="#205a7a"></path><path d="M575 600L702 600L605 520Z" fill="#112e42" stroke="#112e42"></path><path d="M729 465L826 492L769 374Z" fill="#15384f" stroke="#15384f"></path><path d="M900 409L900 277L791 319Z" fill="#0c2435" stroke="#0c2435"></path><path d="M486 0L411 0L400 76Z" fill="#19435d" stroke="#19435d"></path><path d="M707 0L638 0L677 66Z" fill="#112e42" stroke="#112e42"></path><path d="M161 213L182 335L315 195Z" fill="#277297" stroke="#277297"></path><path d="M238 371L211 536L321 505Z" fill="#19435d" stroke="#19435d"></path><path d="M321 505L332 600L376 502Z" fill="#205a7a" stroke="#205a7a"></path><path d="M211 536L332 600L321 505Z" fill="#00101c" stroke="#00101c"></path><path d="M797 600L826 492L729 465Z" fill="#19435d" stroke="#19435d"></path><path d="M791 319L900 277L819 171Z" fill="#00101c" stroke="#00101c"></path><path d="M774 93L707 0L677 66Z" fill="#246688" stroke="#246688"></path><path d="M201 103L315 195L308 139Z" fill="#15384f" stroke="#15384f"></path><path d="M201 103L161 213L315 195Z" fill="#297ea6" stroke="#297ea6"></path><path d="M900 409L791 319L769 374Z" fill="#19435d" stroke="#19435d"></path><path d="M819 171L900 72L774 93Z" fill="#246688" stroke="#246688"></path><path d="M123 461L238 371L182 335Z" fill="#0c2435" stroke="#0c2435"></path><path d="M123 461L211 536L238 371Z" fill="#112e42" stroke="#112e42"></path><path d="M271 0L201 103L308 139Z" fill="#112e42" stroke="#112e42"></path><path d="M826 492L900 409L769 374Z" fill="#246688" stroke="#246688"></path><path d="M702 600L797 600L729 465Z" fill="#277297" stroke="#277297"></path><path d="M826 492L900 491L900 409Z" fill="#19435d" stroke="#19435d"></path><path d="M411 0L271 0L400 76Z" fill="#112e42" stroke="#112e42"></path><path d="M900 277L900 163L819 171Z" fill="#1d4e6b" stroke="#1d4e6b"></path><path d="M774 93L830 0L707 0Z" fill="#0c2435" stroke="#0c2435"></path><path d="M900 600L900 491L826 492Z" fill="#112e42" stroke="#112e42"></path><path d="M69 380L123 461L182 335Z" fill="#112e42" stroke="#112e42"></path><path d="M900 72L830 0L774 93Z" fill="#246688" stroke="#246688"></path><path d="M900 163L900 72L819 171Z" fill="#297ea6" stroke="#297ea6"></path><path d="M211 536L170 600L332 600Z" fill="#15384f" stroke="#15384f"></path><path d="M109 600L170 600L211 536Z" fill="#246688" stroke="#246688"></path><path d="M88 174L71 285L161 213Z" fill="#205a7a" stroke="#205a7a"></path><path d="M161 213L71 285L182 335Z" fill="#15384f" stroke="#15384f"></path><path d="M88 174L161 213L201 103Z" fill="#19435d" stroke="#19435d"></path><path d="M67 128L88 174L201 103Z" fill="#19435d" stroke="#19435d"></path><path d="M71 285L69 380L182 335Z" fill="#205a7a" stroke="#205a7a"></path><path d="M123 461L109 600L211 536Z" fill="#1d4e6b" stroke="#1d4e6b"></path><path d="M271 0L182 0L201 103Z" fill="#00101c" stroke="#00101c"></path><path d="M797 600L900 600L826 492Z" fill="#15384f" stroke="#15384f"></path><path d="M900 72L900 0L830 0Z" fill="#00101c" stroke="#00101c"></path><path d="M0 225L0 309L71 285Z" fill="#297ea6" stroke="#297ea6"></path><path d="M71 285L0 309L69 380Z" fill="#00101c" stroke="#00101c"></path><path d="M133 0L67 128L201 103Z" fill="#246688" stroke="#246688"></path><path d="M182 0L133 0L201 103Z" fill="#0c2435" stroke="#0c2435"></path><path d="M0 471L109 600L123 461Z" fill="#15384f" stroke="#15384f"></path><path d="M0 225L71 285L88 174Z" fill="#112e42" stroke="#112e42"></path><path d="M69 380L0 471L123 461Z" fill="#205a7a" stroke="#205a7a"></path><path d="M0 309L0 370L69 380Z" fill="#112e42" stroke="#112e42"></path><path d="M0 131L0 225L88 174Z" fill="#00101c" stroke="#00101c"></path><path d="M0 131L88 174L67 128Z" fill="#19435d" stroke="#19435d"></path><path d="M0 370L0 471L69 380Z" fill="#112e42" stroke="#112e42"></path><path d="M0 0L0 131L67 128Z" fill="#19435d" stroke="#19435d"></path><path d="M0 471L0 600L109 600Z" fill="#112e42" stroke="#112e42"></path><path d="M133 0L0 0L67 128Z" fill="#246688" stroke="#246688"></path></g></svg>